<svg width="45" height="45" viewBox="0 0 45 45" fill="none" xmlns="http://www.w3.org/2000/svg">
<path d="M28.0125 9.73125C28.7214 8.91427 29.2619 7.96532 29.6029 6.93888C29.944 5.91244 30.079 4.82874 30 3.75C27.8239 3.92566 25.8038 4.94917 24.375 6.6C23.6909 7.3912 23.1724 8.31165 22.8503 9.30683C22.5282 10.302 22.4091 11.3517 22.5 12.3937C23.5616 12.4026 24.6109 12.1671 25.5668 11.7054C26.5227 11.2437 27.3595 10.5682 28.0125 9.73125ZM32.7375 23.6812C32.7501 22.2445 33.1286 20.8347 33.8372 19.5848C34.5458 18.3348 35.5612 17.2861 36.7875 16.5375C36.0136 15.4223 34.9904 14.5028 33.7993 13.8519C32.6081 13.201 31.2816 12.8365 29.925 12.7875C27 12.4875 24.3 14.4937 22.7438 14.4937C21.1875 14.4937 18.9938 12.825 16.5563 12.8625C14.9628 12.915 13.4101 13.3796 12.0496 14.211C10.6892 15.0424 9.56744 16.2122 8.7938 17.6062C5.4938 23.3438 7.95005 31.875 11.25 36.5062C12.75 38.775 14.625 41.3437 17.1 41.25C19.575 41.1562 20.3813 39.7125 23.25 39.7125C26.1188 39.7125 27 41.25 29.4375 41.1937C31.875 41.1375 33.6 38.8687 35.175 36.6C36.2908 34.9529 37.1623 33.153 37.7625 31.2562C36.2766 30.6225 35.0088 29.5674 34.1157 28.2212C33.2227 26.875 32.7436 25.2967 32.7375 23.6812Z" fill="black"/>
</svg>
