<svg width="26" height="26" viewBox="0 0 26 26" fill="none" xmlns="http://www.w3.org/2000/svg">
<path fill-rule="evenodd" clip-rule="evenodd" d="M8 5.07764H5.5V3.82764H3V7.57764H23V3.82764H20.5V5.07764H18V3.82764H8V5.07764ZM23 10.0776H3V22.5776H23V10.0776ZM18 1.32764H8V0.0776367H5.5V1.32764H3C1.61929 1.32764 0.5 2.44692 0.5 3.82764V22.5776C0.5 23.9583 1.61929 25.0776 3 25.0776H23C24.3807 25.0776 25.5 23.9583 25.5 22.5776V3.82764C25.5 2.44692 24.3807 1.32764 23 1.32764H20.5V0.0776367H18V1.32764ZM6.75 15.0776V12.5776H9.25V15.0776H6.75ZM11.75 15.0776H14.25V12.5776H11.75V15.0776ZM16.75 15.0776V12.5776H19.25V15.0776H16.75ZM6.75 17.5776V20.0776H9.25V17.5776H6.75ZM14.25 20.0776H11.75V17.5776H14.25V20.0776Z" fill="#989898"/>
</svg>
