<svg width="16" height="28" viewBox="0 0 16 28" fill="none" xmlns="http://www.w3.org/2000/svg">
<path d="M11.0843 0.200195C9.12218 0.200195 7.42719 0.798359 6.23745 1.98027C5.04771 3.16219 4.39995 4.89449 4.39995 7.02051V9.80019H0.799951C0.640826 9.80021 0.488223 9.86343 0.375705 9.97595C0.263187 10.0885 0.199967 10.2411 0.199951 10.4002V15.2002C0.199967 15.3593 0.263187 15.5119 0.375705 15.6244C0.488223 15.737 0.640826 15.8002 0.799951 15.8002H4.39995V27.2002C4.39997 27.3593 4.46319 27.5119 4.57571 27.6244C4.68822 27.737 4.84083 27.8002 4.99995 27.8002H9.79995C9.95908 27.8002 10.1117 27.737 10.2242 27.6244C10.3367 27.5119 10.3999 27.3593 10.4 27.2002V15.8002H14.6C14.7461 15.8002 14.8872 15.7468 14.9968 15.6502C15.1064 15.5535 15.177 15.4202 15.1953 15.2752L15.7953 10.4752C15.8059 10.3907 15.7984 10.305 15.7734 10.2236C15.7483 10.1423 15.7062 10.0672 15.6499 10.0033C15.5936 9.9395 15.5244 9.88837 15.4468 9.85335C15.3692 9.81832 15.2851 9.8002 15.2 9.80019H10.4V7.4002C10.4 6.7302 10.93 6.20019 11.6 6.20019H15.2C15.3591 6.20018 15.5117 6.13696 15.6242 6.02444C15.7367 5.91192 15.7999 5.75932 15.8 5.60019V1.00762C15.7998 0.862211 15.7468 0.721818 15.6509 0.612535C15.555 0.503253 15.4226 0.432517 15.2785 0.413477C14.7483 0.343128 12.8343 0.200195 11.0843 0.200195ZM11.0843 1.4002C12.547 1.4002 13.961 1.51722 14.6 1.57715V5.0002H11.6C10.2816 5.0002 9.19995 6.08179 9.19995 7.4002V10.4002C9.19997 10.5593 9.26319 10.7119 9.37571 10.8244C9.48822 10.937 9.64083 11.0002 9.79995 11.0002H14.5203L14.0703 14.6002H9.79995C9.64083 14.6002 9.48822 14.6634 9.37571 14.7759C9.26319 14.8885 9.19997 15.0411 9.19995 15.2002V26.6002H5.59995V15.2002C5.59994 15.0411 5.53672 14.8885 5.4242 14.7759C5.31168 14.6634 5.15908 14.6002 4.99995 14.6002H1.39995V11.0002H4.99995C5.15908 11.0002 5.31168 10.937 5.4242 10.8244C5.53672 10.7119 5.59994 10.5593 5.59995 10.4002V7.02051C5.59995 5.13373 6.15214 3.75634 7.08355 2.83105C8.01496 1.90577 9.36188 1.4002 11.0843 1.4002Z" fill="white"/>
</svg>
