<svg width="24" height="24" viewBox="0 0 24 24" fill="none" xmlns="http://www.w3.org/2000/svg">
<path d="M7 0.75C3.55375 0.75 0.75 3.55375 0.75 7V17C0.75 20.4463 3.55375 23.25 7 23.25H17C20.4463 23.25 23.25 20.4463 23.25 17V7C23.25 3.55375 20.4463 0.75 17 0.75H7ZM7 3.25H17C19.0675 3.25 20.75 4.9325 20.75 7V17C20.75 19.0675 19.0675 20.75 17 20.75H7C4.9325 20.75 3.25 19.0675 3.25 17V7C3.25 4.9325 4.9325 3.25 7 3.25ZM18.25 4.5C17.9185 4.5 17.6005 4.6317 17.3661 4.86612C17.1317 5.10054 17 5.41848 17 5.75C17 6.08152 17.1317 6.39946 17.3661 6.63388C17.6005 6.8683 17.9185 7 18.25 7C18.5815 7 18.8995 6.8683 19.1339 6.63388C19.3683 6.39946 19.5 6.08152 19.5 5.75C19.5 5.41848 19.3683 5.10054 19.1339 4.86612C18.8995 4.6317 18.5815 4.5 18.25 4.5ZM12 5.75C8.55375 5.75 5.75 8.55375 5.75 12C5.75 15.4462 8.55375 18.25 12 18.25C15.4462 18.25 18.25 15.4462 18.25 12C18.25 8.55375 15.4462 5.75 12 5.75ZM12 8.25C14.0675 8.25 15.75 9.9325 15.75 12C15.75 14.0675 14.0675 15.75 12 15.75C9.9325 15.75 8.25 14.0675 8.25 12C8.25 9.9325 9.9325 8.25 12 8.25Z" fill="white"/>
</svg>
