<svg width="26" height="24" viewBox="0 0 26 24" fill="none" xmlns="http://www.w3.org/2000/svg">
<path d="M3.26312 5.75H3.29562C5.03937 5.75 6.125 4.5 6.125 2.9375C6.0925 1.34062 5.03937 0.125 3.32875 0.125C1.61812 0.125 0.5 1.34062 0.5 2.9375C0.5 4.5 1.585 5.75 3.26312 5.75ZM0.5 7.625H6.125V23.875H0.5V7.625ZM25.5 13.5625C25.5 10.2831 22.8419 7.625 19.5625 7.625C17.6544 7.625 15.9613 8.52875 14.875 9.9275V7.625H9.25V23.875H14.875V14.5C14.875 13.1194 15.9944 12 17.375 12C18.7556 12 19.875 13.1194 19.875 14.5V23.875H25.5C25.5 23.875 25.5 14.4719 25.5 13.5625Z" fill="white"/>
</svg>
