<svg width="20" height="26" viewBox="0 0 20 26" fill="none" xmlns="http://www.w3.org/2000/svg">
<path d="M10 13C8.625 13 7.5 11.875 7.5 10.5C7.5 9.125 8.625 8 10 8C11.375 8 12.5 9.125 12.5 10.5C12.5 11.875 11.375 13 10 13ZM17.5 10.75C17.5 6.2125 14.1875 3 10 3C5.8125 3 2.5 6.2125 2.5 10.75C2.5 13.675 4.9375 17.55 10 22.175C15.0625 17.55 17.5 13.675 17.5 10.75ZM10 0.5C15.25 0.5 20 4.525 20 10.75C20 14.9 16.6625 19.8125 10 25.5C3.3375 19.8125 0 14.9 0 10.75C0 4.525 4.75 0.5 10 0.5Z" fill="#989898"/>
</svg>
