<svg width="20" height="21" viewBox="0 0 20 21" fill="none" xmlns="http://www.w3.org/2000/svg">
<path d="M10 3.07764C11.375 3.07764 12.5 4.20264 12.5 5.57764C12.5 6.95264 11.375 8.07764 10 8.07764C8.625 8.07764 7.5 6.95264 7.5 5.57764C7.5 4.20264 8.625 3.07764 10 3.07764ZM10 14.3276C13.375 14.3276 17.25 15.9401 17.5 16.8276V18.0776H2.5V16.8401C2.75 15.9401 6.625 14.3276 10 14.3276ZM10 0.577637C7.2375 0.577637 5 2.81514 5 5.57764C5 8.34014 7.2375 10.5776 10 10.5776C12.7625 10.5776 15 8.34014 15 5.57764C15 2.81514 12.7625 0.577637 10 0.577637ZM10 11.8276C6.6625 11.8276 0 13.5026 0 16.8276V20.5776H20V16.8276C20 13.5026 13.3375 11.8276 10 11.8276Z" fill="#989898"/>
</svg>
