<svg width="29" height="25" viewBox="0 0 29 25" fill="none" xmlns="http://www.w3.org/2000/svg">
<path d="M28.1035 3.05315C27.0736 3.53482 25.9657 3.8606 24.8039 4.0061C25.9902 3.25648 26.9005 2.07037 27.3302 0.654727C26.2202 1.34922 24.9903 1.85303 23.6823 2.1246C22.6344 0.947526 21.1414 0.211914 19.4882 0.211914C16.3162 0.211914 13.7437 2.92527 13.7437 6.27077C13.7437 6.74566 13.7946 7.2079 13.8932 7.65162C9.11897 7.39904 4.88585 4.98706 2.05235 1.3203C1.55797 2.21496 1.27436 3.25648 1.27436 4.36667C1.27436 6.46823 2.28926 8.32352 3.82982 9.40977C2.88861 9.37859 2.00223 9.10613 1.22809 8.65111C1.22766 8.67687 1.22766 8.70262 1.22766 8.72793C1.22766 11.6636 3.20863 14.1122 5.83607 14.6684C5.35453 14.8076 4.84601 14.8812 4.32292 14.8812C3.95192 14.8812 3.59248 14.8437 3.24204 14.7732C3.97291 17.1798 6.09397 18.9316 8.6083 18.9809C6.6419 20.6062 4.16527 21.5745 1.47314 21.5745C1.01046 21.5745 0.552061 21.546 0.103516 21.4895C2.64441 23.2093 5.6647 24.2119 8.90862 24.2119C19.4749 24.2119 25.2533 14.9797 25.2533 6.97249C25.2533 6.70997 25.2477 6.44835 25.2366 6.18898C26.3599 5.33499 27.3337 4.26817 28.1035 3.05315Z" fill="white"/>
</svg>
